<svg xmlns="http://www.w3.org/2000/svg" viewBox="0 0 1024 1024" role="img" aria-labelledby="title">
  <title>SylCycle logo</title>
  <rect width="1024" height="1024" fill="#fff"/>
  <g transform="translate(83 92)">
    <path
      d="M193 647c61 112 164 171 282 159-41-35-71-74-93-117-60-5-112-31-151-81L119 722c76 92 172 141 294 148 64 4 121-4 171-24-73-35-130-88-170-157-82-10-151-49-221-42z"
      fill="#08356d"/>
    <path
      d="M632 666c31 24 66 39 104 42 42-58 58-121 41-187-18-68-68-117-149-148l-206-79c-65-25-92-66-82-123 9-53 47-93 111-119 83-34 180-26 257 19 37 22 70 50 99 86l104-104C838-36 732-84 595-84 458-84 345-46 256 31 172 104 130 191 131 292c1 90 31 164 91 222 44 43 108 80 190 111l141 53c67 25 98 64 93 116-4 38-25 75-64 109 31 21 65 34 102 40 16-24 30-51 42-81 27-67 24-128-9-183-20-34-49-62-85-83z"
      fill="#08356d"/>
    <path
      d="M389 511c86-100 195-154 326-154 114 0 210 49 288 146l-103 57c-52-57-113-86-184-86-68 0-124 23-169 68l-158-31z"
      fill="#4899df"/>
    <path
      d="M414 641l103 39c-11 71 7 133 53 185 48 55 111 82 188 82 76 0 139-30 190-90l94 69c-69 91-163 136-281 136-122 0-220-39-294-116-78-82-105-184-80-306l27 1z"
      fill="#4899df"/>
    <path d="M845 232h156L923 356 845 232z" fill="#e82635"/>
  </g>
</svg>
